
  <svg
    width="1000"
    height="1000"
    viewBox="0 0 1000 1000"
    xmlns="http://www.w3.org/2000/svg"
  >
    <defs>
      <clipPath id="shape">
        <path fill="currentColor" d="M772,593Q756,686,683.5,764Q611,842,508.5,815.5Q406,789,281,769.5Q156,750,193.5,625Q231,500,167.5,356Q104,212,252.5,204.5Q401,197,515.5,148Q630,99,695.5,204.5Q761,310,774.5,405Q788,500,772,593Z"></path>
      </clipPath>
    </defs>
      <g  clip-path="url(#shape)">
      <path fill="#8c52ffff" d="M772,593Q756,686,683.5,764Q611,842,508.5,815.5Q406,789,281,769.5Q156,750,193.5,625Q231,500,167.5,356Q104,212,252.5,204.5Q401,197,515.5,148Q630,99,695.5,204.5Q761,310,774.5,405Q788,500,772,593Z" />
    </g>
</svg>