
  <svg
    width="1000"
    height="1000"
    viewBox="0 0 1000 1000"
    xmlns="http://www.w3.org/2000/svg"
  >
    <defs>
      
      
      
      
      
      
      
      <clipPath id="shape">
        <path fill="currentColor" d="M763,599Q772,698,688.5,760.5Q605,823,501,821Q397,819,260.5,796Q124,773,76,636.5Q28,500,95.5,377.5Q163,255,289,247Q415,239,525.5,160.5Q636,82,748,160Q860,238,807,369Q754,500,763,599Z"></path>
      </clipPath>
    </defs>
  
    

    <g  clip-path="url(#shape)">
      <path fill="#8c52ffff" d="M763,599Q772,698,688.5,760.5Q605,823,501,821Q397,819,260.5,796Q124,773,76,636.5Q28,500,95.5,377.5Q163,255,289,247Q415,239,525.5,160.5Q636,82,748,160Q860,238,807,369Q754,500,763,599Z" />
    </g>

    
  
  </svg>