
  <svg
    width="1000"
    height="1000"
    viewBox="0 0 1000 1000"
    xmlns="http://www.w3.org/2000/svg"
  >
    <defs>
      <clipPath id="shape">
        <path fill="currentColor" d="M787,574.5Q705,649,676,801.5Q647,954,500,953.5Q353,953,289,826.5Q225,700,149,600Q73,500,117.5,377Q162,254,264,170Q366,86,487.5,125Q609,164,722.5,210Q836,256,852.5,378Q869,500,787,574.5Z"></path>
      </clipPath>
    </defs>
    <g  clip-path="url(#shape)">
      <path fill="#8c52ffff" d="M787,574.5Q705,649,676,801.5Q647,954,500,953.5Q353,953,289,826.5Q225,700,149,600Q73,500,117.5,377Q162,254,264,170Q366,86,487.5,125Q609,164,722.5,210Q836,256,852.5,378Q869,500,787,574.5Z" />
    </g>
  </svg>