
  <svg
    width="1000"
    height="1000"
    viewBox="0 0 1000 1000"
    xmlns="http://www.w3.org/2000/svg"
  >
    <defs>
      
      
      
      
      
      
      
      <clipPath id="shape">
        <path fill="currentColor" d="M835,647Q904,794,752,801Q600,808,492,833Q384,858,250,818.5Q116,779,80,639.5Q44,500,166,423Q288,346,348.5,282.5Q409,219,512,183Q615,147,691,226.5Q767,306,766.5,403Q766,500,835,647Z"></path>
      </clipPath>
    </defs>
  
    

    <g  clip-path="url(#shape)">
      <path fill="#8c52ffff" d="M835,647Q904,794,752,801Q600,808,492,833Q384,858,250,818.5Q116,779,80,639.5Q44,500,166,423Q288,346,348.5,282.5Q409,219,512,183Q615,147,691,226.5Q767,306,766.5,403Q766,500,835,647Z" />
    </g>

    
  
  </svg>